<svg xmlns="http://www.w3.org/2000/svg" width="220" height="44" viewBox="0 0 220 44">
  <!-- Five frames, each 44x44 px (total 220x44) -->
  <!-- Frame 1: usb (blue) -->
  <rect x="0" y="0" width="44" height="44" fill="#234f6f" rx="8"/>
  <g transform="translate(6,6) scale(0.6)" fill="#cde7ff">
    <rect x="6" y="6" width="20" height="6" rx="1"/>
    <rect x="10" y="14" width="12" height="18" rx="2"/>
  </g>
  <!-- Frame 2: mail (green) -->
  <rect x="44" y="0" width="44" height="44" fill="#2e6a3f" rx="8"/>
  <g transform="translate(50,9) scale(0.5)" fill="#dff7df">
    <rect x="6" y="8" width="32" height="22" rx="3"/>
    <polyline points="6,8 22,22 38,8" fill="#cdecc7"/>
  </g>
  <!-- Frame 3: phone (purple) -->
  <rect x="88" y="0" width="44" height="44" fill="#5c3d6d" rx="8"/>
  <g transform="translate(96,6) scale(0.4)" fill="#f0e7ff">
    <rect x="6" y="4" width="20" height="36" rx="4"/>
    <circle cx="16" cy="30" r="2" fill="#d1c6ff"/>
  </g>
  <!-- Frame 4: wallet (brown) -->
  <rect x="132" y="0" width="44" height="44" fill="#6b4f37" rx="8"/>
  <g transform="translate(140,10) scale(0.5)" fill="#fde7c8">
    <rect x="2" y="4" width="36" height="24" rx="3"/>
    <rect x="24" y="10" width="8" height="6" rx="1" fill="#e5cba6"/>
  </g>
  <!-- Frame 5: case (teal) -->
  <rect x="176" y="0" width="44" height="44" fill="#2f4f55" rx="8"/>
  <g transform="translate(184,8) scale(0.45)" fill="#dff6f8">
    <rect x="4" y="6" width="28" height="20" rx="2"/>
    <rect x="6" y="8" width="24" height="4" rx="1" fill="#cdeff2"/>
  </g>
</svg>
